<?xml version="1.0" encoding="UTF-8"?>
<svg id="Layer_2" data-name="Layer 2" xmlns="http://www.w3.org/2000/svg" viewBox="0 0 256.6 426.64">
  <defs>
    <style>
      .cls-1 {
        fill: #fff;
      }

      .cls-2 {
        fill: #464655;
      }

      .cls-3 {
        fill: none;
      }
    </style>
  </defs>
  <g id="Layer_4" data-name="Layer 4">
    <rect class="cls-3" width="256.6" height="426.64"/>
    <rect class="cls-2" x="185.6" y="76.11" width="3.44" height="27.74" rx="1.6" ry="1.6"/>
    <rect class="cls-2" x="97.98" y="51.57" width="8.49" height="47.19" rx="3.96" ry="3.96" transform="translate(-2.29 3.22) rotate(-1.78)"/>
    <rect class="cls-2" x="119.12" y="55.3" width="11.22" height="86.78" rx="3.96" ry="3.96" transform="translate(219.49 -29.05) rotate(88.22)"/>
    <path class="cls-2" d="M83.17,94.17h0c1.16-.12,2.22,1.67,2.36,4.01l8.5,142.06c.14,2.34-.69,4.34-1.85,4.46h0c-1.16,.12-2.22-1.67-2.36-4.01l-8.5-142.06c-.14-2.34,.69-4.34,1.85-4.46Z"/>
    <path class="cls-2" d="M229.91,122.64h0c.11,1.16-.69,2.15-1.79,2.2l-66.65,3.06c-1.1,.05-2.08-.85-2.19-2.02h0c-.11-1.16,.69-2.15,1.79-2.2l66.65-3.06c1.1-.05,2.08,.85,2.19,2.02Z"/>
    <rect class="cls-2" x="144.15" y="1.61" width="4.94" height="98.06" rx="2.3" ry="2.3" transform="translate(192.68 -97.48) rotate(88.22)"/>
    <rect class="cls-2" x="66.84" y="53.38" width="37.43" height="7.31" rx="3.41" ry="3.41" transform="translate(-11.61 23.4) rotate(-14.6)"/>
    <rect class="cls-2" x="148.16" y="182.49" width="5.06" height="62.18" rx="2.36" ry="2.36" transform="translate(364.26 62.89) rotate(90)"/>
    <rect class="cls-2" x="89.72" y="239.23" width="34.53" height="5.48" rx="2.55" ry="2.55"/>
    <rect class="cls-2" x="119.59" y="211.71" width="4.66" height="32.19" rx="2.17" ry="2.17"/>
    <rect class="cls-2" x="164.56" y="99.74" width="24.48" height="4.11" rx="1.92" ry="1.92"/>
    <rect class="cls-2" x="177.16" y="46.46" width="3.44" height="34.79" rx="1.6" ry="1.6" transform="translate(-6.6 104.74) rotate(-32.08)"/>
    <rect class="cls-2" x="156.26" y="99.66" width="6.42" height="80.17" rx="2.99" ry="2.99" transform="translate(-10.27 12.67) rotate(-4.41)"/>
    <rect class="cls-2" x="87.67" y="151.52" width="71.62" height="5.34" transform="translate(-4.74 3.92) rotate(-1.78)"/>
    <rect class="cls-2" x="154.38" y="172.83" width="5.76" height="27.29" rx="2.69" ry="2.69" transform="translate(114.31 -53.65) rotate(30)"/>
    <rect class="cls-2" x="149" y="193.57" width="6.58" height="20.4" rx="2.69" ry="2.69"/>
    <rect class="cls-2" x="143.12" y="52.01" width="5.67" height="44.24"/>
    <rect class="cls-2" x="132.25" y="226.78" width="43.64" height="6.57" rx="3.06" ry="3.06"/>
    <rect class="cls-2" x="171.3" y="226.78" width="4.59" height="54.85" rx="2.14" ry="2.14"/>
    <rect class="cls-2" x="132.25" y="226.78" width="7.41" height="54.03" rx="3.45" ry="3.45"/>
    <rect class="cls-2" x="168.33" y="294.12" width="6.54" height="85.1" rx="3.05" ry="3.05" transform="translate(46.9 -20.04) rotate(7.74)"/>
    <rect class="cls-2" x="142.74" y="372.05" width="26.3" height="4.64" rx="2.16" ry="2.16" transform="translate(91.49 -26.01) rotate(13.47)"/>
    <rect class="cls-2" x="116.58" y="371.88" width="31.23" height="4.35" rx="1.73" ry="1.73" transform="translate(-52.86 23.13) rotate(-8.34)"/>
    <rect class="cls-2" x="140.24" y="367.39" width="12.26" height="4.11" rx="1.91" ry="1.91" transform="translate(304.1 4.71) rotate(45)"/>
    <rect class="cls-2" x="171.19" y="276.79" width="6.71" height="23.55" rx="3.13" ry="3.13" transform="translate(-64.85 51.02) rotate(-14.05)"/>
    <rect class="cls-2" x="67.57" y="272.36" width="68.03" height="5.1" rx="2.38" ry="2.38" transform="translate(43.36 -12.33) rotate(8.82)"/>
    <rect class="cls-2" x="131.7" y="277.01" width="43.19" height="5.62" rx="2.62" ry="2.62"/>
  </g>
  <g id="Layer_1-2" data-name="Layer 1">
    <path d="M220.61,104.05l.07-1.1-3.29-3.15,3.97,.07,2.26-2.07-5.07-5.39,1.23-1.71-9.66-2.6v-2.94l-17.26,.48v10.96h-1.92v5.48l1.92,.27v2.33l-21.5,1.16,.48,10.34h3.08v-1.99l4.18-.07v5.68l4.31-.41,2.47-1.64v-2.26l20.13-.41-.31-3.42,2.16-1.99,4.52,.41,.34,8.83s7.13-1.34,10.07-3.77c3-2.48,5-8.7,5-8.7l-7.19-2.4Z"/>
    <polygon points="55.22 27.49 55.22 35.81 63.23 35.81 63.23 38.17 77.72 37.76 77.72 37.04 86.86 36.53 86.86 34.68 92.2 30.06 89.02 25.44 85.11 29.03 83.78 28.83 83.78 27.59 77.41 28 77.41 26.57 55.22 27.49"/>
    <polygon points="69.81 120.46 77.92 121.79 75.46 133.81 67.65 132.37 69.81 120.46"/>
    <polygon points="63.75 119.81 67.65 122.61 65.7 125.39 61.59 122.6 63.75 119.81"/>
    <polygon points="203.73 174.04 220.09 173.63 220.5 183.08 216.94 183.08 217.01 186.03 227.76 186.03 229.06 218.76 197.29 220.07 196.4 186.78 207.49 186.41 207.43 183.72 204.01 183.77 203.73 174.04"/>
    <polygon points="205.71 141.82 192.97 142.65 192.97 140.18 189.07 140.18 189.07 135.97 179.11 136.79 178.59 129.8 162.77 130.73 163.9 143.67 167.6 143.47 167.88 147.27 167.88 147.27 165.96 147.27 167.6 173.63 169.78 173.63 171.61 198.94 183.73 198.32 182.91 187.74 185.99 187.74 183.73 160.62 203.76 158.98 205.71 141.82"/>
    <polygon points="120.76 160.07 141.71 158.84 142.06 161.65 153.77 160.76 154.93 159.46 157.26 160.55 155 175.76 142.19 176.78 143.5 194.04 141.58 194.04 141.44 196.85 146.99 196.51 147.19 201.64 139.52 201.99 139.93 208.08 127.68 208.83 127.06 193.63 118.77 194.18 117.95 177.95 127.24 177.54 127.17 171.99 121.58 172.13 120.76 160.07"/>
    <polygon points="92.61 173.63 104.87 173.63 104.87 176.99 109.66 177.61 108.77 191.1 104.12 191.1 103.84 195.27 93.5 195.27 92.61 173.63"/>
    <polygon points="111.03 202.6 103.64 202.19 103.64 203.29 93.37 203.29 93.37 212.39 98.23 212.81 98.37 213.97 111.03 213.76 111.03 202.6"/>
    <polygon points="30.36 176.58 83.85 174.59 84.6 193.56 72.27 194.11 71.73 198.29 76.66 198.9 75.56 210.34 71.38 210.34 71.73 208.56 68.16 208.08 64.06 210.89 59.12 211.44 59.06 212.39 51.25 212.39 51.32 211.57 49.74 211.37 49.61 215.13 39.4 215.61 39.47 212.81 37.55 212.87 37.28 213.97 33.03 213.63 32.69 210.41 31.39 210.41 30.36 176.58"/>
    <polygon points="31.25 106.25 27.96 117.14 58.58 127.07 62.21 116.18 31.25 106.25"/>
    <polygon points="58.65 107.36 70.84 107.36 71.11 108.32 75.01 108.32 75.01 107.36 77 106.95 76.44 93.44 92.2 92.63 92.13 89 93.16 89 93.16 84.83 91.72 84.83 91.59 75.89 76.93 76.24 77.14 81.61 66.72 82.5 66.99 92.29 58.65 92.56 58.65 107.36"/>
    <polygon points="108.71 55.05 109.8 54.09 115.28 54.09 115.28 59.98 134.39 59.22 134.87 69.7 133.29 69.7 133.57 76.34 136.24 76.69 136.58 86 131.03 86 131.03 81.21 121.65 81.82 121.92 87.44 110.01 88.06 109.87 78.67 112.02 78.4 111.95 70.59 109.32 70.52 108.71 55.05"/>
    <polygon points="121.31 106.65 129.52 106.59 129.52 108.71 135.83 108.23 135.48 105.9 147.4 105.36 144.87 124.05 147.4 124.05 146.37 131.45 136.1 132.2 137.61 150.42 132.06 150.42 131.78 143.36 127.33 143.36 127.39 141.31 124.46 141.38 124.18 143.77 91.04 145.83 89.94 127.89 122.41 125.48 121.31 106.65"/>
    <path d="M184.48,83.35h-7.94v-.62h2.67l-.34-10.82h-10.96v-5.07h-14.04l.13,16.85h15.07l.28,13.15,3.29-.07v1.03h3.08l.27-1.23,8.83-.34-.34-12.87Z"/>
    <polyline points="153.53 83.51 169.35 83.51 169.35 84.5"/>
    <path d="M155.82,335.8c-2.69-.3-5.39-.59-8.08-.89l1.37-12.94-4.93-.48,1.23-11.85-36.91-4.04-5,50.27,12.4,1.1-.62,4.52,22.87,2.26,.99-9.02c2.79-.33,9.59-1.55,13.49-5.94,3.96-4.45,3.18-12.98,3.18-12.98Z"/>
    <polygon points="142.95 380.38 150.28 381.07 149.45 388.19 151.3 388.53 150.82 392.03 153.36 392.44 152.54 399.49 150.48 399.49 149.86 404.01 140.35 403.39 140.82 399.63 139.39 399.35 139.8 394.49 136.65 394.42 137.2 388.81 141.98 389.33 142.95 380.38"/>
  </g>
  <g id="Layer_2-2" data-name="Layer 2">
    <path class="cls-1" d="M178.35,150.92h-.03l-1.57,.85-.24-.93,1.98-1.06h1.04v9.07h-1.18v-7.93Z"/>
    <path class="cls-1" d="M132.25,180.6v-.75l.96-.93c2.31-2.21,3.37-3.38,3.37-4.75,0-.92-.44-1.77-1.79-1.77-.83,0-1.51,.43-1.93,.77l-.39-.86c.62-.53,1.52-.92,2.56-.92,1.95,0,2.77,1.34,2.77,2.63,0,1.68-1.21,3.04-3.12,4.87l-.72,.68v.03h4.06v1.02h-5.79Z"/>
    <path class="cls-1" d="M130.28,121.31c.35,.22,1.15,.56,2.01,.56,1.57,0,2.06-1,2.05-1.76-.01-1.27-1.16-1.81-2.34-1.81h-.69v-.92h.69c.89,0,2.02-.46,2.02-1.53,0-.73-.46-1.37-1.59-1.37-.72,0-1.42,.32-1.81,.6l-.33-.89c.48-.35,1.4-.7,2.37-.7,1.79,0,2.61,1.06,2.61,2.17,0,.94-.57,1.73-1.67,2.13v.03c1.12,.21,2.02,1.06,2.02,2.32,0,1.45-1.14,2.72-3.31,2.72-1.02,0-1.91-.32-2.35-.62l.33-.94Z"/>
    <g>
      <path class="cls-1" d="M94.41,185.61c.29,.18,.72,.33,1.17,.33,.67,0,1.06-.35,1.06-.86,0-.47-.27-.75-.96-1-.83-.29-1.34-.73-1.34-1.44,0-.79,.65-1.37,1.64-1.37,.51,0,.9,.12,1.12,.24l-.18,.54c-.16-.1-.5-.24-.96-.24-.69,0-.96,.41-.96,.76,0,.47,.31,.7,1.01,.97,.86,.34,1.29,.75,1.29,1.49s-.57,1.46-1.77,1.46c-.49,0-1.02-.15-1.29-.33l.17-.54Z"/>
      <path class="cls-1" d="M101.73,186.24c-.24,.12-.72,.24-1.34,.24-1.43,0-2.49-.9-2.49-2.56s1.07-2.65,2.64-2.65c.62,0,1.03,.13,1.2,.22l-.16,.53c-.25-.12-.6-.21-1.02-.21-1.19,0-1.97,.76-1.97,2.09,0,1.24,.71,2.03,1.94,2.03,.4,0,.81-.08,1.07-.21l.13,.52Z"/>
      <path class="cls-1" d="M104.06,184.13v.48h-1.85v-.48h1.85Z"/>
      <path class="cls-1" d="M104.85,181.41c.29-.06,.74-.11,1.19-.11,.66,0,1.08,.11,1.39,.37,.26,.2,.42,.5,.42,.9,0,.49-.33,.92-.86,1.11v.02c.48,.12,1.04,.51,1.04,1.27,0,.43-.17,.77-.43,1.01-.35,.33-.92,.48-1.75,.48-.45,0-.8-.03-1.02-.06v-4.98Zm.65,2.07h.6c.68,0,1.09-.36,1.09-.85,0-.59-.44-.82-1.11-.82-.3,0-.48,.02-.58,.05v1.63Zm0,2.42c.13,.03,.31,.03,.55,.03,.68,0,1.3-.25,1.3-.98,0-.69-.6-.98-1.31-.98h-.54v1.93Z"/>
    </g>
    <g>
      <path class="cls-1" d="M95,210.08c.29,.18,.72,.33,1.17,.33,.67,0,1.06-.35,1.06-.86,0-.47-.27-.75-.96-1-.83-.29-1.34-.73-1.34-1.44,0-.79,.65-1.37,1.64-1.37,.51,0,.9,.12,1.12,.24l-.18,.54c-.16-.1-.5-.24-.96-.24-.69,0-.96,.41-.96,.76,0,.47,.31,.7,1.01,.97,.86,.34,1.29,.75,1.29,1.49s-.57,1.46-1.77,1.46c-.49,0-1.02-.15-1.29-.33l.17-.54Z"/>
      <path class="cls-1" d="M102.32,210.71c-.24,.12-.72,.24-1.34,.24-1.42,0-2.49-.9-2.49-2.56s1.07-2.65,2.64-2.65c.62,0,1.03,.13,1.2,.22l-.16,.53c-.25-.12-.6-.21-1.02-.21-1.19,0-1.97,.76-1.97,2.09,0,1.24,.71,2.03,1.94,2.03,.4,0,.81-.08,1.07-.21l.13,.52Z"/>
      <path class="cls-1" d="M104.65,208.6v.48h-1.85v-.48h1.85Z"/>
      <path class="cls-1" d="M105.45,205.88c.4-.07,.88-.11,1.39-.11,.94,0,1.61,.22,2.05,.64,.45,.41,.72,1,.72,1.81s-.26,1.5-.73,1.97c-.48,.47-1.26,.73-2.24,.73-.47,0-.86-.02-1.19-.06v-4.98Zm.66,4.48c.17,.03,.41,.03,.66,.03,1.4,0,2.16-.78,2.16-2.15,0-1.2-.67-1.95-2.05-1.95-.34,0-.59,.03-.77,.07v4Z"/>
    </g>
    <g>
      <path class="cls-1" d="M39.65,114.36h-.02l-1.21,.65-.18-.72,1.52-.81h.8v6.97h-.91v-6.1Z"/>
      <path class="cls-1" d="M47.08,114.14c-.2,0-.44,0-.71,.05-1.48,.24-2.26,1.32-2.42,2.48h.03c.33-.45,.91-.81,1.68-.81,1.24,0,2.11,.9,2.11,2.25,0,1.28-.87,2.46-2.32,2.46s-2.46-1.16-2.46-2.97c0-1.37,.49-2.46,1.18-3.14,.58-.57,1.35-.92,2.23-1.03,.28-.04,.51-.05,.68-.05v.77Zm-.27,4.03c0-1-.57-1.6-1.43-1.6-.57,0-1.1,.35-1.36,.86-.06,.11-.1,.24-.1,.41,.01,1.15,.54,2,1.53,2,.81,0,1.36-.68,1.36-1.68Z"/>
    </g>
    <path class="cls-1" d="M85.44,89.13v-2.47h-4.21v-.8l4.04-5.79h1.33v5.64h1.27v.95h-1.27v2.47h-1.16Zm0-3.42v-3.03c0-.47,.02-.95,.05-1.42h-.05c-.28,.53-.5,.92-.75,1.34l-2.21,3.08v.03s2.96,0,2.96,0Z"/>
    <path class="cls-1" d="M125.1,67.86h-3.45l-.35,2.33c.21-.03,.4-.05,.73-.05,.71,0,1.39,.15,1.96,.49,.7,.39,1.29,1.18,1.29,2.33,0,1.77-1.4,3.09-3.37,3.09-1,0-1.82-.28-2.26-.56l.31-.94c.37,.22,1.11,.51,1.94,.51,1.15,0,2.15-.76,2.14-1.98,0-1.17-.79-2-2.6-2-.53,0-.93,.04-1.26,.09l.59-4.35h4.33v1.03Z"/>
    <path class="cls-1" d="M163.66,72.34c-.26,0-.57,0-.93,.07-1.92,.31-2.94,1.72-3.14,3.22h.03c.43-.58,1.19-1.06,2.19-1.06,1.61,0,2.74,1.17,2.74,2.93,0,1.66-1.13,3.2-3.02,3.2s-3.2-1.51-3.2-3.86c0-1.78,.64-3.2,1.53-4.09,.75-.74,1.75-1.2,2.9-1.34,.36-.06,.66-.07,.89-.07v1Zm-.34,5.24c0-1.3-.74-2.08-1.86-2.08-.74,0-1.43,.45-1.77,1.11-.07,.14-.13,.32-.13,.54,.02,1.49,.71,2.61,1.99,2.61,1.05,0,1.77-.88,1.77-2.18Z"/>
    <path class="cls-1" d="M208.65,94.78v.81l-3.95,8.26h-1.26l3.92-8.02v-.03h-4.43v-1.02h5.72Z"/>
    <g>
      <path class="cls-1" d="M113.03,327.44v3.03h3.49v-3.03h.94v7.23h-.94v-3.39h-3.49v3.39h-.94v-7.23h.94Z"/>
      <path class="cls-1" d="M119.51,329.48l1.13,3.07c.12,.34,.25,.75,.33,1.06h.03c.09-.31,.21-.7,.33-1.08l1.03-3.04h1l-1.42,3.7c-.67,1.78-1.13,2.69-1.78,3.25-.47,.4-.93,.56-1.16,.61l-.23-.79c.24-.07,.54-.22,.83-.46,.25-.21,.57-.57,.79-1.05,.05-.1,.07-.17,.07-.23,0-.05-.02-.13-.07-.24l-1.91-4.78h1.03Z"/>
      <path class="cls-1" d="M124.22,330.89c0-.54-.02-.97-.04-1.4h.82l.05,.83h.03c.29-.49,.77-.95,1.64-.95,.7,0,1.24,.43,1.46,1.04h.02c.17-.29,.37-.52,.58-.68,.31-.24,.65-.36,1.14-.36,.69,0,1.71,.45,1.71,2.25v3.05h-.92v-2.93c0-1-.37-1.6-1.13-1.6-.54,0-.96,.39-1.12,.85-.04,.14-.08,.31-.08,.47v3.21h-.92v-3.11c0-.83-.37-1.42-1.08-1.42-.59,0-1.02,.47-1.18,.94-.05,.14-.07,.3-.07,.46v3.13h-.92v-3.79Z"/>
      <path class="cls-1" d="M136.04,334.67l-.08-.66h-.03c-.29,.41-.84,.77-1.59,.77-1.05,0-1.58-.74-1.58-1.49,0-1.26,1.11-1.95,3.12-1.93v-.11c0-.42-.12-1.2-1.18-1.2-.48,0-.99,.14-1.35,.39l-.21-.63c.43-.28,1.06-.46,1.71-.46,1.59,0,1.97,1.08,1.97,2.12v1.94c0,.44,.02,.88,.08,1.24h-.85Zm-.15-2.65c-1.02-.02-2.19,.16-2.19,1.17,0,.62,.41,.9,.88,.9,.68,0,1.11-.43,1.26-.87,.03-.1,.04-.21,.04-.3v-.9Z"/>
      <path class="cls-1" d="M138.34,330.89c0-.54-.02-.97-.04-1.4h.83l.05,.85h.03c.25-.49,.86-.97,1.72-.97,.71,0,1.83,.43,1.83,2.21v3.09h-.94v-2.99c0-.84-.32-1.54-1.2-1.54-.62,0-1.1,.44-1.27,.97-.04,.12-.06,.28-.06,.44v3.13h-.94v-3.79Z"/>
      <path class="cls-1" d="M120.53,338.17v3.03h3.49v-3.03h.94v7.23h-.94v-3.39h-3.49v3.39h-.94v-7.23h.94Z"/>
      <path class="cls-1" d="M129.43,345.4l-.08-.66h-.03c-.29,.41-.84,.77-1.59,.77-1.05,0-1.58-.74-1.58-1.49,0-1.26,1.11-1.95,3.12-1.93v-.11c0-.42-.12-1.2-1.18-1.2-.48,0-.99,.14-1.35,.39l-.21-.63c.43-.28,1.06-.46,1.71-.46,1.59,0,1.97,1.08,1.97,2.12v1.94c0,.44,.02,.88,.08,1.24h-.85Zm-.15-2.65c-1.02-.02-2.19,.16-2.19,1.17,0,.62,.41,.9,.88,.9,.68,0,1.11-.43,1.26-.87,.03-.1,.04-.21,.04-.3v-.9Z"/>
      <path class="cls-1" d="M131.73,337.79h.94v7.62h-.94v-7.62Z"/>
      <path class="cls-1" d="M134.26,337.79h.94v7.62h-.94v-7.62Z"/>
    </g>
    <g>
      <path class="cls-1" d="M141.43,397.39v-.52l.67-.65c1.6-1.53,2.33-2.34,2.34-3.29,0-.64-.3-1.23-1.24-1.23-.57,0-1.04,.29-1.34,.53l-.27-.59c.43-.36,1.05-.64,1.78-.64,1.35,0,1.92,.93,1.92,1.82,0,1.17-.84,2.1-2.16,3.37l-.5,.47v.02h2.81v.7h-4.01Z"/>
      <path class="cls-1" d="M150.57,394.18c0,2.13-.8,3.31-2.18,3.31-1.23,0-2.06-1.15-2.08-3.22,0-2.11,.91-3.27,2.19-3.27s2.08,1.18,2.08,3.18Zm-3.41,.09c0,1.64,.5,2.56,1.27,2.56,.87,0,1.28-1.01,1.28-2.61s-.39-2.56-1.27-2.56c-.74,0-1.28,.91-1.28,2.61Z"/>
    </g>
    <g>
      <path class="cls-1" d="M70.71,125.54h-.01l-.85,.46-.13-.5,1.07-.57h.56v4.88h-.64v-4.27Z"/>
      <path class="cls-1" d="M75.17,129.8v-1.33h-2.27v-.43l2.17-3.12h.72v3.04h.68v.51h-.68v1.33h-.62Zm0-1.84v-1.63c0-.25,0-.51,.02-.76h-.03c-.15,.29-.27,.5-.41,.72l-1.19,1.66v.02s1.6,0,1.6,0Z"/>
    </g>
    <g>
      <path class="cls-1" d="M68.69,35.83v-.57l.74-.72c1.78-1.7,2.59-2.6,2.6-3.65,0-.71-.34-1.36-1.37-1.36-.64,0-1.16,.33-1.48,.59l-.3-.66c.48-.4,1.17-.71,1.97-.71,1.5,0,2.13,1.03,2.13,2.02,0,1.3-.93,2.34-2.4,3.74l-.55,.52v.02h3.12v.78h-4.45Z"/>
      <path class="cls-1" d="M78.72,28.86v.62l-3.04,6.35h-.97l3.02-6.17v-.02h-3.41v-.78h4.4Z"/>
    </g>
    <g>
      <path class="cls-1" d="M210.84,198.21c.22,.02,.48,0,.83-.04,.6-.07,1.17-.32,1.61-.74,.5-.47,.87-1.14,1.01-2.04h-.03c-.43,.52-1.04,.82-1.81,.82-1.38,0-2.26-1.04-2.26-2.35,0-1.44,1.05-2.72,2.62-2.72s2.53,1.27,2.53,3.24c0,1.68-.57,2.86-1.32,3.59-.59,.57-1.4,.93-2.23,1.02-.37,.06-.71,.07-.95,.06v-.85Zm.37-4.4c0,.95,.58,1.63,1.48,1.63,.69,0,1.23-.35,1.51-.81,.05-.1,.09-.21,.09-.38,0-1.31-.49-2.31-1.57-2.31-.89,0-1.51,.78-1.51,1.87Z"/>
      <path class="cls-1" d="M208.17,209.31c-.46,.17-1.37,.44-2.44,.44-1.21,0-2.2-.3-2.97-1.05-.69-.66-1.11-1.71-1.11-2.95,0-2.37,1.63-4.11,4.3-4.11,.92,0,1.65,.2,1.99,.36l-.26,.84c-.42-.19-.95-.34-1.76-.34-1.93,0-3.19,1.2-3.19,3.19s1.21,3.21,3.07,3.21c.67,0,1.13-.09,1.36-.21v-2.37h-1.61v-.82h2.62v3.82Z"/>
      <path class="cls-1" d="M210.09,203.96l1.25,3.37c.13,.38,.27,.82,.37,1.16h.03c.1-.34,.23-.77,.36-1.19l1.13-3.35h1.1l-1.56,4.06c-.74,1.96-1.25,2.96-1.95,3.58-.51,.44-1.02,.62-1.27,.67l-.26-.87c.26-.08,.6-.24,.91-.51,.28-.23,.63-.63,.87-1.16,.05-.11,.08-.19,.08-.25,0-.06-.02-.14-.07-.27l-2.1-5.26h1.13Z"/>
      <path class="cls-1" d="M215.27,205.5c0-.6-.02-1.07-.05-1.54h.9l.05,.92h.03c.32-.54,.85-1.05,1.8-1.05,.77,0,1.36,.47,1.61,1.14h.02c.18-.32,.41-.57,.64-.74,.35-.26,.72-.4,1.25-.4,.76,0,1.88,.49,1.88,2.48v3.36h-1.01v-3.23c0-1.1-.41-1.76-1.24-1.76-.59,0-1.05,.43-1.23,.93-.05,.15-.08,.34-.08,.52v3.53h-1.01v-3.42c0-.91-.4-1.56-1.18-1.56-.65,0-1.12,.52-1.29,1.04-.05,.15-.08,.33-.08,.51v3.44h-1.01v-4.16Z"/>
    </g>
    <g>
      <path class="cls-1" d="M36.51,190.01c.46,.29,1.13,.52,1.83,.52,1.05,0,1.67-.55,1.67-1.35,0-.74-.43-1.17-1.5-1.57-1.3-.46-2.1-1.14-2.1-2.26,0-1.24,1.03-2.16,2.58-2.16,.81,0,1.41,.19,1.75,.38l-.29,.84c-.25-.15-.79-.38-1.5-.38-1.09,0-1.5,.65-1.5,1.19,0,.74,.48,1.1,1.58,1.53,1.35,.53,2.03,1.18,2.03,2.34s-.9,2.29-2.78,2.29c-.77,0-1.61-.23-2.03-.52l.27-.86Z"/>
      <path class="cls-1" d="M42.42,187.1c0-.6-.02-1.07-.05-1.54h.9l.05,.92h.03c.32-.54,.85-1.05,1.8-1.05,.77,0,1.36,.47,1.61,1.14h.02c.18-.32,.41-.57,.64-.74,.35-.26,.72-.4,1.25-.4,.76,0,1.88,.49,1.88,2.48v3.36h-1.01v-3.23c0-1.1-.41-1.76-1.24-1.76-.59,0-1.05,.43-1.23,.93-.05,.15-.08,.34-.08,.52v3.53h-1.01v-3.42c0-.91-.4-1.56-1.19-1.56-.65,0-1.12,.52-1.29,1.04-.05,.15-.08,.33-.08,.51v3.44h-1.01v-4.16Z"/>
      <path class="cls-1" d="M53.42,183.95c0,.35-.25,.64-.66,.64-.38,0-.63-.29-.63-.64,0-.36,.27-.65,.65-.65s.64,.28,.64,.65Zm-1.16,7.32v-5.7h1.03v5.7h-1.03Z"/>
      <path class="cls-1" d="M56.27,183.92v1.64h1.49v.79h-1.49v3.07c0,.71,.2,1.11,.78,1.11,.27,0,.46-.03,.6-.08l.05,.79c-.2,.08-.52,.14-.93,.14-.48,0-.87-.16-1.12-.44-.29-.31-.4-.82-.4-1.49v-3.12h-.88v-.79h.88v-1.37l1.02-.27Z"/>
      <path class="cls-1" d="M58.93,182.89h1.03v3.56h.02c.17-.29,.43-.55,.75-.73,.3-.18,.67-.29,1.06-.29,.77,0,1.99,.47,1.99,2.44v3.4h-1.03v-3.28c0-.92-.35-1.69-1.32-1.69-.68,0-1.2,.47-1.4,1.04-.05,.15-.07,.3-.07,.49v3.45h-1.03v-8.37Z"/>
      <path class="cls-1" d="M41.51,201.74c-.37,.19-1.13,.38-2.1,.38-2.24,0-3.92-1.42-3.92-4.03s1.68-4.17,4.15-4.17c.98,0,1.62,.21,1.89,.35l-.25,.84c-.39-.18-.94-.33-1.6-.33-1.87,0-3.1,1.19-3.1,3.28,0,1.95,1.12,3.19,3.05,3.19,.63,0,1.27-.13,1.68-.33l.21,.82Z"/>
      <path class="cls-1" d="M43.22,199.33c.02,1.4,.91,1.98,1.95,1.98,.74,0,1.2-.13,1.58-.29l.18,.74c-.36,.17-1,.36-1.9,.36-1.75,0-2.81-1.17-2.81-2.88s1.02-3.08,2.68-3.08c1.86,0,2.35,1.63,2.35,2.68,0,.22-.01,.37-.04,.49h-4Zm3.04-.75c.01-.65-.27-1.68-1.43-1.68-1.06,0-1.51,.96-1.59,1.68h3.02Z"/>
      <path class="cls-1" d="M48.55,197.83c0-.6-.02-1.07-.05-1.54h.92l.06,.94h.03c.28-.54,.94-1.07,1.89-1.07,.78,0,2.01,.47,2.01,2.43v3.4h-1.03v-3.29c0-.92-.35-1.69-1.32-1.69-.68,0-1.21,.48-1.4,1.06-.04,.13-.07,.31-.07,.48v3.44h-1.03v-4.16Z"/>
      <path class="cls-1" d="M56.3,194.64v1.64h1.49v.79h-1.49v3.07c0,.71,.2,1.11,.78,1.11,.27,0,.46-.03,.6-.08l.05,.79c-.2,.08-.52,.14-.93,.14-.48,0-.87-.16-1.12-.44-.29-.31-.4-.82-.4-1.49v-3.12h-.88v-.79h.88v-1.37l1.02-.27Z"/>
      <path class="cls-1" d="M59.47,199.33c.02,1.4,.91,1.98,1.95,1.98,.74,0,1.2-.13,1.58-.29l.18,.74c-.36,.17-1,.36-1.9,.36-1.75,0-2.81-1.17-2.81-2.88s1.02-3.08,2.68-3.08c1.86,0,2.35,1.63,2.35,2.68,0,.22-.01,.37-.04,.49h-4Zm3.04-.75c.01-.65-.27-1.68-1.43-1.68-1.06,0-1.51,.96-1.59,1.68h3.02Z"/>
      <path class="cls-1" d="M64.8,198.06c0-.67-.02-1.25-.05-1.78h.91l.04,1.12h.04c.27-.77,.9-1.25,1.59-1.25,.11,0,.19,0,.29,.03v.98c-.11-.02-.21-.03-.35-.03-.73,0-1.25,.55-1.39,1.33-.03,.15-.04,.32-.04,.48v3.05h-1.03v-3.93Z"/>
    </g>
  </g>
</svg>